<svg xmlns="http://www.w3.org/2000/svg" width="32" height="32" fill="none" viewBox="0 0 32 32"><defs><linearGradient id="jade-v" x1="2" x2="30" y1="2" y2="30" gradientUnits="userSpaceOnUse"><stop offset="0%" stop-color="#34D399"/><stop offset="100%" stop-color="#059669"/></linearGradient></defs><rect width="28" height="28" x="2" y="2" fill="url(#jade-v)" rx="7"/><g fill="none" stroke="#fff" stroke-linecap="round" stroke-linejoin="round" stroke-width="2.8"><path d="M8 9H17"/><path d="M15 9V21"/><path d="M15 21C15 23.5 13 25 11 25C9.5 25 8.5 24 8.5 23"/><path d="M15 9H20.5C23.5 9 25 11 25 13.5C25 16 23.5 18 20.5 18H15"/><path d="M19.5 18L26 25"/></g><circle cx="27" cy="6.5" r="4" fill="#FCD34D" opacity=".15"/><path fill="#FCD34D" d="M27 3L27.8 5.5L30.5 6.5L27.8 7.5L27 10L26.2 7.5L23.5 6.5L26.2 5.5Z"/><circle cx="23.5" cy="3.5" r="1" fill="#FCD34D" opacity=".5"/></svg>