<svg xmlns="http://www.w3.org/2000/svg" width="180" height="48" fill="none" viewBox="0 0 180 48"><defs><linearGradient id="jade-f" x1="2" x2="46" y1="2" y2="46" gradientUnits="userSpaceOnUse"><stop offset="0%" stop-color="#34D399"/><stop offset="100%" stop-color="#059669"/></linearGradient></defs><g><rect width="44" height="44" x="2" y="2" fill="url(#jade-f)" rx="11"/><g fill="none" stroke="#fff" stroke-linecap="round" stroke-linejoin="round" stroke-width="3.5"><path d="M11 12H24"/><path d="M22 12V32"/><path d="M22 32C22 35.5 20 38 16.5 38C14.5 38 13 37 13 36"/><path d="M22 12H30C34.5 12 37 15 37 19C37 23 34.5 26 30 26H22"/><path d="M29 26L39 38"/></g><circle cx="41" cy="9" r="6" fill="#FCD34D" opacity=".12"/><path fill="#FCD34D" d="M41 3.5L42.4 8L47 9.5L42.4 11L41 15.5L39.6 11L35 9.5L39.6 8Z"/><path fill="#FCD34D" d="M34.5 2L35.1 4L37 4.5L35.1 5L34.5 7L33.9 5L32 4.5L33.9 4Z" opacity=".6"/><circle cx="45" cy="4" r="1.1" fill="#FCD34D" opacity=".45"/></g><text x="54" y="33" fill="#064E3B" font-family="system-ui, -apple-system, 'Segoe UI', sans-serif" font-size="26" font-weight="700" letter-spacing="-.5">Jade<tspan fill="#10B981">AI</tspan></text></svg>