<svg xmlns="http://www.w3.org/2000/svg" width="64" height="64" fill="none" viewBox="0 0 64 64"><defs><linearGradient id="jade" x1="4" x2="60" y1="4" y2="60" gradientUnits="userSpaceOnUse"><stop offset="0%" stop-color="#34D399"/><stop offset="100%" stop-color="#059669"/></linearGradient></defs><rect width="56" height="56" x="4" y="4" fill="url(#jade)" rx="14"/><g fill="none" stroke="#fff" stroke-linecap="round" stroke-linejoin="round" stroke-width="4.5"><path d="M14 16H30"/><path d="M28 16V40"/><path d="M28 40C28 45 24.5 48 20 48C17 48 15 46.5 15 45"/><path d="M28 16H38C44 16 47 19.5 47 24.5C47 29.5 44 33 38 33H28"/><path d="M36 33L50 49"/></g><circle cx="53" cy="12" r="8" fill="#FCD34D" opacity=".12"/><path fill="#FCD34D" d="M53 5L55 11L61 13L55 15L53 21L51 15L45 13L51 11Z"/><path fill="#FCD34D" d="M45 4L45.8 6.6L48.5 7.2L45.8 7.8L45 10.5L44.2 7.8L41.5 7.2L44.2 6.6Z" opacity=".6"/><circle cx="58" cy="6" r="1.5" fill="#FCD34D" opacity=".45"/></svg>